# xmcd CD database file
#
# Track frame offsets:
#	150
#	8774
#	27604
#	48794
#	68602
#	87124
#	104724
#	127838
#	153930
#	170828
#	191775
#	209586
#
# Disc length: 3063 seconds
#
# Revision: 1
# Processed by: cddbd v1.5.2PL0 Copyright (c) Steve Scherf et al.
# Submitted via: CDex 1.70beta2
#
DISCID=a00bf50c
DTITLE=SWING HOLIC - VOL.10
DYEAR=2012
DGENRE=Jazz
TTITLE0=GAME START
TTITLE1=妖精かくれんぼ
TTITLE2=sweet as marmalade
TTITLE3=Mystic Mysty Lake
TTITLE4=FAIRY TAIL
TTITLE5=デタラメ UPSIDE DOWN
TTITLE6=Glitterati
TTITLE7=雪月桜花
TTITLE8=Five-star Tricksters
TTITLE9=メイガスレイン
TTITLE10=二つの世界
TTITLE11=MONKEY GIRL
EXTD=YEAR: 2012
EXTT0=
EXTT1=
EXTT2=
EXTT3=
EXTT4=
EXTT5=
EXTT6=
EXTT7=
EXTT8=
EXTT9=
EXTT10=
EXTT11=
PLAYORDER=
